<?xml version="1.0" encoding="UTF-8"?>
<svg version="1.1" xmlns="http://www.w3.org/2000/svg" width="340" height="444">
<path d="M0 0 C112.2 0 224.4 0 340 0 C340 146.52 340 293.04 340 444 C227.8 444 115.6 444 0 444 C0 297.48 0 150.96 0 0 Z " fill="#FEFEFE" transform="translate(0,0)"/>
<path d="M0 0 C112.2 0 224.4 0 340 0 C340 146.52 340 293.04 340 444 C227.8 444 115.6 444 0 444 C0 297.48 0 150.96 0 0 Z M27 20 C26.16647271 75.80288213 26.16647271 75.80288213 25.88393438 131.60410821 C25.8885423 135.60078192 25.88677271 139.59745583 25.8860321 143.59413147 C25.88552465 150.41089478 25.88847552 157.22764803 25.89426994 164.0444088 C25.90264041 173.89850911 25.90502518 183.75260491 25.90625793 193.60670839 C25.90841008 209.62086494 25.91496188 225.63501621 25.92456055 241.64916992 C25.93383688 257.14233373 25.9408551 272.63549606 25.94506836 288.12866211 C25.94533636 289.1043383 25.94560435 290.0800145 25.94588047 291.08525664 C25.94796168 298.72339008 25.94991798 306.36152355 25.95183504 313.99965703 C25.96115303 350.99977622 25.98129733 387.99988206 26 425 C120.71 425 215.42 425 313 425 C313 386.72 313 348.44 313 309 C302.77 309 292.54 309 282 309 C282 252.57 282 196.14 282 138 C292.23 138 302.46 138 313 138 C313 99.06 313 60.12 313 20 C218.62 20 124.24 20 27 20 Z " fill="#BECDCD" transform="translate(0,0)"/>
<path d="M0 0 C0.33 0 0.66 0 1 0 C1.03111658 48.87863432 0.96397501 97.75626047 0.80645666 146.63463665 C0.77753152 155.62532436 0.74999695 164.61601622 0.72249681 173.60670839 C0.67347994 189.62086509 0.62346315 205.63501849 0.57275391 221.64916992 C0.52369667 237.14233229 0.47515264 252.63549614 0.42724609 268.12866211 C0.42271984 269.5921764 0.42271984 269.5921764 0.41810215 271.08525664 C0.39448328 278.72339003 0.37089281 286.36152352 0.34731126 293.99965703 C0.23307196 330.99977625 0.11637216 367.99988731 0 405 C94.71 405 189.42 405 287 405 C287.33 367.38 287.66 329.76 288 291 C288.33 290.34 288.66 289.68 289 289 C289.66 289 290.32 289 291 289 C290.50886719 288.28199219 290.01773437 287.56398438 289.51171875 286.82421875 C286.88870281 281.57356074 287.6904434 275.52412293 287.8125 269.8125 C287.82603516 268.62462891 287.83957031 267.43675781 287.85351562 266.21289062 C287.87964586 264.01919514 287.91194014 261.8255582 287.95239258 259.63208008 C287.98634475 257.75496001 288 255.87742709 288 254 C288.33 253.34 288.66 252.68 289 252 C290.65 252 292.3 252 294 252 C294.33 252.99 294.66 253.98 295 255 C295.70511719 255.09410156 296.41023438 255.18820312 297.13671875 255.28515625 C300.52443697 256.13093037 302.88140234 257.55013993 305.8125 259.4375 C306.78832031 260.05496094 307.76414062 260.67242187 308.76953125 261.30859375 C309.50558594 261.86675781 310.24164063 262.42492187 311 263 C311 263.66 311 264.32 311 265 C311.99 265 312.98 265 314 265 C314 317.47 314 369.94 314 424 C201.8 424 89.6 424 -26 424 C-26 302.23 -26 180.46 -26 55 C-25.67 55.66 -25.34 56.32 -25 57 C-24.34 57 -23.68 57 -23 57 C-23 57.66 -23 58.32 -23 59 C-21.35 59 -19.7 59 -18 59 C-17.67 59.99 -17.34 60.98 -17 62 C-18.32 62 -19.64 62 -21 62 C-19.12641553 63.10656688 -17.25106361 64.21014146 -15.375 65.3125 C-14.33085937 65.92738281 -13.28671875 66.54226562 -12.2109375 67.17578125 C-9.18601612 68.89431931 -6.12595518 70.47457142 -3 72 C-0.78698511 68.428994 -0.7273053 65.45747702 -0.68115234 61.30371094 C-0.67110672 60.63988403 -0.6610611 59.97605713 -0.65071106 59.29211426 C-0.61991367 57.10620967 -0.6028539 54.92042737 -0.5859375 52.734375 C-0.56722304 51.21550446 -0.54764941 49.69664428 -0.5272522 48.17779541 C-0.47595421 44.18630081 -0.43631612 40.19477251 -0.39910889 36.203125 C-0.35905454 32.12751953 -0.30796874 28.05205396 -0.2578125 23.9765625 C-0.16108086 15.98447062 -0.07666736 7.99230942 0 0 Z " fill="#CECECE" transform="translate(26,20)"/>
<path d="M0 0 C10.23 0 20.46 0 31 0 C31 55.77 31 111.54 31 169 C20.77 169 10.54 169 0 169 C0 113.23 0 57.46 0 0 Z " fill="#05615D" transform="translate(282,139)"/>
<path d="M0 0 C0.66 -0.33 1.32 -0.66 2 -1 C5.06242321 -1.08711775 8.10186465 -1.1154846 11.1640625 -1.09765625 C12.07127045 -1.0962413 12.97847839 -1.09482635 13.91317749 -1.09336853 C16.81715155 -1.08776096 19.72104915 -1.07520718 22.625 -1.0625 C24.59114472 -1.05748598 26.55729065 -1.0529229 28.5234375 -1.04882812 C33.3489879 -1.03778906 38.17448097 -1.02051935 43 -1 C43.99 2.3 44.98 5.6 46 9 C47.32 6.03 48.64 3.06 50 0 C50.99 0.33 51.98 0.66 53 1 C53.73046875 3.06640625 53.73046875 3.06640625 54.1875 5.5625 C54.42533203 6.80193359 54.42533203 6.80193359 54.66796875 8.06640625 C54.83232422 9.02353516 54.83232422 9.02353516 55 10 C55.66 10 56.32 10 57 10 C57.144375 9.0925 57.28875 8.185 57.4375 7.25 C57.86409473 4.78523044 58.35074221 2.41152893 59 0 C59.99 0.33 60.98 0.66 62 1 C61.43746937 3.15138043 60.84932179 5.29607714 60.25 7.4375 C59.76273438 9.22994141 59.76273438 9.22994141 59.265625 11.05859375 C58 14 58 14 55.859375 14.91015625 C55.24578125 14.93980469 54.6321875 14.96945313 54 15 C52.68373308 11.38026598 52 8.90432869 52 5 C51.34 5 50.68 5 50 5 C49.34 8.3 48.68 11.6 48 15 C46.68 15 45.36 15 44 15 C43.01 10.71 42.02 6.42 41 2 C39.02 2 37.04 2 35 2 C35 6.29 35 10.58 35 15 C34.01 15 33.02 15 32 15 C32 10.71 32 6.42 32 2 C28.04 2 24.08 2 20 2 C20 3.65 20 5.3 20 7 C21.98 7 23.96 7 26 7 C26 7.66 26 8.32 26 9 C24.02 9 22.04 9 20 9 C20 11.31 20 13.62 20 16 C18.68 16.33 17.36 16.66 16 17 C15.67 16.01 15.34 15.02 15 14 C13.9790625 14.2475 13.9790625 14.2475 12.9375 14.5 C8.59936694 15.23840563 4.53581223 15.38395306 0.25 14.3125 C-0.4925 14.209375 -1.235 14.10625 -2 14 C-2.495 14.495 -2.99 14.99 -3.5 15.5 C-3.995 15.995 -4.49 16.49 -5 17 C-8.48032201 16.73897585 -10.05096298 15.96602468 -13 14 C-13 13.34 -13 12.68 -13 12 C-10.69 12 -8.38 12 -6 12 C-6 11.34 -6 10.68 -6 10 C-7.98 9.01 -9.96 8.02 -12 7 C-12.36585366 2.48780488 -12.36585366 2.48780488 -10.6875 0.25 C-6.65703534 -2.73552938 -4.40270381 -1.49879279 0 0 Z " fill="#D6EFEE" transform="translate(87,188)"/>
<path d="M0 0 C0.33 0 0.66 0 1 0 C1.00423194 0.54684039 1.00846388 1.09368078 1.01282406 1.65709209 C1.11617682 14.96948993 1.22488231 28.28183481 1.33933926 41.59414196 C1.39452829 48.03190087 1.44794196 54.46966435 1.49731445 60.9074707 C1.54501716 67.11906702 1.59736226 73.33060839 1.65294075 79.54213905 C1.6733375 81.91320746 1.69205499 84.28429092 1.70907402 86.65538597 C1.73317722 89.97368184 1.76322392 93.29187423 1.79467773 96.61010742 C1.80331093 98.08393639 1.80331093 98.08393639 1.81211853 99.58753967 C1.82190735 100.49472748 1.83169617 101.40191528 1.84178162 102.33659363 C1.84823417 103.12103946 1.85468672 103.90548529 1.8613348 104.7137022 C1.94893689 107.04361158 1.94893689 107.04361158 2.50237274 109.45966339 C3.02778597 112.14184456 3.12302204 114.57724411 3.12025452 117.30879211 C3.12162918 118.35902054 3.12300385 119.40924896 3.12442017 120.49130249 C3.11902725 122.20357529 3.11902725 122.20357529 3.11352539 123.95043945 C3.11367142 125.16061234 3.11381744 126.37078522 3.1139679 127.61763 C3.11339145 130.92717032 3.10838317 134.23664793 3.10139394 137.54617715 C3.09513404 141.00817444 3.09455451 144.47017261 3.09336853 147.93217468 C3.09026299 154.48397015 3.08206007 161.03574888 3.07201904 167.58753699 C3.06083378 175.04821 3.05534137 182.50888382 3.05032361 189.96956313 C3.03987681 205.31305176 3.02229242 220.65652372 3 236 C4.32 236.33 5.64 236.66 7 237 C7 237.99 7 238.98 7 240 C5.35 240.33 3.7 240.66 2 241 C2.33 241.66 2.66 242.32 3 243 C2.67 243.66 2.34 244.32 2 245 C1.75615419 249.30766949 1.81479824 253.62370616 1.8125 257.9375 C1.79413086 259.74637695 1.79413086 259.74637695 1.77539062 261.59179688 C1.77345703 262.74615234 1.77152344 263.90050781 1.76953125 265.08984375 C1.76542236 266.15066162 1.76131348 267.21147949 1.75708008 268.30444336 C1.8037218 271.22317852 1.8037218 271.22317852 4 274 C4 274.99 4 275.98 4 277 C3.34 277 2.68 277 2 277 C1.67 313.96 1.34 350.92 1 389 C0.67 389 0.34 389 0 389 C0 352.04 0 315.08 0 277 C-10.23 277 -20.46 277 -31 277 C-31 276.67 -31 276.34 -31 276 C-20.77 276 -10.54 276 0 276 C0 220.23 0 164.46 0 107 C-10.23 107 -20.46 107 -31 107 C-31 106.67 -31 106.34 -31 106 C-20.77 106 -10.54 106 0 106 C0 71.02 0 36.04 0 0 Z " fill="#90A8A8" transform="translate(313,32)"/>
<path d="M0 0 C3.80805049 -0.31498191 6.93777034 -0.4023191 10.68359375 0.3828125 C13.90167872 3.29952126 15.82947886 6.47941274 17.68359375 10.3828125 C18.01359375 7.4128125 18.34359375 4.4428125 18.68359375 1.3828125 C19.34359375 1.3828125 20.00359375 1.3828125 20.68359375 1.3828125 C20.68359375 6.3328125 20.68359375 11.2828125 20.68359375 16.3828125 C16.02919851 14.83134742 14.50175116 11.32823287 11.68359375 7.3828125 C11.35359375 10.6828125 11.02359375 13.9828125 10.68359375 17.3828125 C7.53803019 17.57661499 4.3923338 17.76314992 1.24609375 17.9453125 C0.34826172 18.00138672 -0.54957031 18.05746094 -1.47460938 18.11523438 C-2.32861328 18.16357422 -3.18261719 18.21191406 -4.0625 18.26171875 C-4.85325928 18.3088501 -5.64401855 18.35598145 -6.45874023 18.40454102 C-8.31640625 18.3828125 -8.31640625 18.3828125 -9.31640625 17.3828125 C-9.55004506 15.53389304 -9.7294426 13.67793219 -9.87890625 11.8203125 C-9.96269531 10.80839844 -10.04648438 9.79648438 -10.1328125 8.75390625 C-10.19339844 7.97144531 -10.25398437 7.18898437 -10.31640625 6.3828125 C-11.63640625 9.0228125 -12.95640625 11.6628125 -14.31640625 14.3828125 C-18.05279841 13.13734845 -18.50397138 11.74876297 -20.31640625 8.3828125 C-20.64640625 11.0228125 -20.97640625 13.6628125 -21.31640625 16.3828125 C-22.30640625 16.3828125 -23.29640625 16.3828125 -24.31640625 16.3828125 C-24.31640625 11.4328125 -24.31640625 6.4828125 -24.31640625 1.3828125 C-20.31640625 2.3828125 -20.31640625 2.3828125 -18.83203125 4.23046875 C-18.414375 4.96136719 -17.99671875 5.69226563 -17.56640625 6.4453125 C-16.92445313 7.54552734 -16.92445313 7.54552734 -16.26953125 8.66796875 C-15.955 9.23386719 -15.64046875 9.79976562 -15.31640625 10.3828125 C-15.03667969 9.74472656 -14.75695312 9.10664063 -14.46875 8.44921875 C-11.19434506 1.70036483 -11.19434506 1.70036483 -7.37890625 0.3203125 C-4.83959772 0.3314743 -2.54494506 0.2937628 0 0 Z " fill="#C6DFDE" transform="translate(195.31640625,216.6171875)"/>
<path d="M0 0 C0.99 0 1.98 0 3 0 C6 6.625 6 6.625 6 10 C6.99 9.67 7.98 9.34 9 9 C9.33 6.03 9.66 3.06 10 0 C19.10714286 -0.26785714 19.10714286 -0.26785714 23 2 C23 1.34 23 0.68 23 0 C26.63 0 30.26 0 34 0 C34 0.66 34 1.32 34 2 C31.69 2 29.38 2 27 2 C27 3.32 27 4.64 27 6 C28.65 6 30.3 6 32 6 C32.495 7.485 32.495 7.485 33 9 C31.02 9 29.04 9 27 9 C27 10.32 27 11.64 27 13 C29.31 13 31.62 13 34 13 C34 13.99 34 14.98 34 16 C24.76 16 15.52 16 6 16 C5.67 14.35 5.34 12.7 5 11 C2.69 11.33 0.38 11.66 -2 12 C-2.33 12.99 -2.66 13.98 -3 15 C-3.99 15 -4.98 15 -6 15 C-4.36041242 9.76727367 -2.61047965 4.84803364 0 0 Z " fill="#DCF4F3" transform="translate(155,188)"/>
<path d="M0 0 C0.66 0 1.32 0 2 0 C2 56.43 2 112.86 2 171 C-1 168 -1 168 -1.35352612 165.00713825 C-1.34338639 163.77101386 -1.33324667 162.53488947 -1.32279968 161.26130676 C-1.3212794 160.57270669 -1.31975913 159.88410662 -1.31819278 159.17463988 C-1.3094068 156.86195147 -1.27902132 154.55004889 -1.2487793 152.23754883 C-1.23807358 150.58196283 -1.22869602 148.92636779 -1.22055054 147.27076721 C-1.19463323 142.7709086 -1.15007948 138.27140259 -1.10225272 133.77173066 C-1.05543676 129.07126014 -1.02565802 124.37068296 -0.99409485 119.67008972 C-0.93170906 110.76648994 -0.85393583 101.86309327 -0.77067453 92.95966691 C-0.67664021 82.82444734 -0.59969828 72.68912077 -0.52421319 62.55374873 C-0.36853424 41.70232341 -0.19132167 20.85112673 0 0 Z " fill="#D3EFEF" transform="translate(280,138)"/>
<path d="M0 0 C0 4.62 0 9.24 0 14 C1.98 14 3.96 14 6 14 C6 14.66 6 15.32 6 16 C3.03 16 0.06 16 -3 16 C-3.33 13.03 -3.66 10.06 -4 7 C-4.99 8.485 -4.99 8.485 -6 10 C-9.125 10.1875 -9.125 10.1875 -12 10 C-12 11.32 -12 12.64 -12 14 C-9.69 14 -7.38 14 -5 14 C-5 14.66 -5 15.32 -5 16 C-8.3 16 -11.6 16 -15 16 C-15 11.71 -15 7.42 -15 3 C-15.99 3 -16.98 3 -18 3 C-18.1546875 3.99 -18.1546875 3.99 -18.3125 5 C-19.19213564 8.83841009 -20.56969896 12.33096691 -22 16 C-23.828125 15.87109375 -23.828125 15.87109375 -26 15 C-27.484375 12.34765625 -27.484375 12.34765625 -28.75 9.0625 C-29.17796875 7.98097656 -29.6059375 6.89945313 -30.046875 5.78515625 C-31 3 -31 3 -31 1 C-30.01 1 -29.02 1 -28 1 C-26.68 4.3 -25.36 7.6 -24 11 C-22.35 7.37 -20.7 3.74 -19 0 C-16.58373582 -0.19534474 -14.16734771 -0.38153404 -11.75 -0.5625 C-11.06808594 -0.61857422 -10.38617188 -0.67464844 -9.68359375 -0.73242188 C-6.09232411 -0.99392209 -3.54104574 -0.88526144 0 0 Z " fill="#D3E7E6" transform="translate(133,217)"/>
<path d="M0 0 C0.33 0 0.66 0 1 0 C1 55.44 1 110.88 1 168 C-8.9 168 -18.8 168 -29 168 C-29 167.67 -29 167.34 -29 167 C-19.76 166.67 -10.52 166.34 -1 166 C-0.67 111.22 -0.34 56.44 0 0 Z " fill="#0B5953" transform="translate(311,140)"/>
<path d="M0 0 C4.95 0 9.9 0 15 0 C15.99 2.97 16.98 5.94 18 9 C19.32 6.03 20.64 3.06 22 0 C22.99 0.33 23.98 0.66 25 1 C25.73046875 3.06640625 25.73046875 3.06640625 26.1875 5.5625 C26.34605469 6.38878906 26.50460938 7.21507812 26.66796875 8.06640625 C26.77753906 8.70449219 26.88710937 9.34257812 27 10 C27.66 10 28.32 10 29 10 C29.144375 9.0925 29.28875 8.185 29.4375 7.25 C29.86409473 4.78523044 30.35074221 2.41152893 31 0 C32.485 0.495 32.485 0.495 34 1 C33.43746937 3.15138043 32.84932179 5.29607714 32.25 7.4375 C31.76273438 9.22994141 31.76273438 9.22994141 31.265625 11.05859375 C30 14 30 14 27.859375 14.91015625 C27.24578125 14.93980469 26.6321875 14.96945313 26 15 C24.68373308 11.38026598 24 8.90432869 24 5 C23.34 5 22.68 5 22 5 C21.34 8.3 20.68 11.6 20 15 C18.68 15 17.36 15 16 15 C15.01 10.71 14.02 6.42 13 2 C11.02 2 9.04 2 7 2 C7 6.29 7 10.58 7 15 C6.01 15 5.02 15 4 15 C4 10.71 4 6.42 4 2 C2.68 2 1.36 2 0 2 C0 1.34 0 0.68 0 0 Z " fill="#3A6965" transform="translate(115,188)"/>
<path d="M0 0 C2.66858306 0.53661725 3.56706088 1.24160875 5.15625 3.43359375 C5.91537409 10.26571054 5.91537409 10.26571054 3.53125 13.93359375 C0.39311002 15.91557689 -1.19248465 16.10423433 -4.84375 15.43359375 C-8.21371335 12.94275127 -9.66185427 11.5477051 -10.34375 7.37109375 C-9.18279069 0.55045779 -6.37628436 -0.01062714 0 0 Z " fill="#D1EDEB" transform="translate(140.84375,247.56640625)"/>
<path d="M0 0 C2.09765625 0.34375 2.09765625 0.34375 4.16015625 1.90625 C5.47647828 5.32868728 5.61687093 7.70924727 5.09765625 11.34375 C2.51596174 14.30510546 0.9088449 15.21131104 -2.96484375 15.84375 C-5.90234375 15.34375 -5.90234375 15.34375 -8.27734375 13.84375 C-10.70898874 10.10275771 -10.39409217 7.76948582 -9.90234375 3.34375 C-7.17762337 -0.41448501 -4.34576236 -0.16959073 0 0 Z " fill="#E6F3F3" transform="translate(110.90234375,247.65625)"/>
<path d="M0 0 C2.4375 1.5625 2.4375 1.5625 4 4 C4.56288002 7.94016013 4.60396028 10.05782196 2.4375 13.4375 C-0.94217804 15.60396028 -3.05983987 15.56288002 -7 15 C-9.4375 13.5 -9.4375 13.5 -11 11 C-11.57853498 8.03575377 -11.39353376 6.09907833 -11 3 C-8.06403859 -0.7580306 -4.50318499 -0.56289812 0 0 Z " fill="#3A6764" transform="translate(152,218)"/>
<path d="M0 0 C9.21641791 -0.48507463 9.21641791 -0.48507463 12.625 1.625 C14.44828677 4.77431352 14.6587245 6.41361103 14 10 C12.0625 12.875 12.0625 12.875 9 15 C5.87327402 15.41306246 3.17628148 15.23703593 0 15 C0 10.05 0 5.1 0 0 Z " fill="#386761" transform="translate(75,218)"/>
<path d="M0 0 C1.5 1.3125 1.5 1.3125 3 3 C3 3.99 3 4.98 3 6 C2.34 6 1.68 6 1 6 C0.67 42.96 0.34 79.92 0 118 C-0.33 118 -0.66 118 -1 118 C-1 81.04 -1 44.08 -1 6 C-11.23 6 -21.46 6 -32 6 C-32 5.67 -32 5.34 -32 5 C-16.655 4.505 -16.655 4.505 -1 4 C-0.67 2.68 -0.34 1.36 0 0 Z " fill="#98A1A0" transform="translate(314,303)"/>
<path d="M0 0 C7.875 0 7.875 0 11 3 C10.25 7.75 10.25 7.75 8 10 C9.98 12.97 9.98 12.97 12 16 C7.75177626 15.52797514 5.80010291 13.03344482 3 10 C3 11.98 3 13.96 3 16 C2.01 16 1.02 16 0 16 C0 10.72 0 5.44 0 0 Z " fill="#5E8A87" transform="translate(88,247)"/>
<path d="M0 0 C4 1 4 1 5.484375 2.84765625 C6.65625 4.8984375 7.828125 6.94921875 9 9 C10.65 6.03 12.3 3.06 14 0 C14.99 0 15.98 0 17 0 C17 4.95 17 9.9 17 15 C16.34 15 15.68 15 15 15 C14.67 11.7 14.34 8.4 14 5 C12.68 7.64 11.36 10.28 10 13 C6.26360784 11.75453595 5.81243487 10.36595047 4 7 C3.67 9.64 3.34 12.28 3 15 C2.01 15 1.02 15 0 15 C0 10.05 0 5.1 0 0 Z " fill="#46726E" transform="translate(171,218)"/>
<path d="M0 0 C7.875 0 7.875 0 11 3 C10.67 4.98 10.34 6.96 10 9 C7.69 9.33 5.38 9.66 3 10 C3 11.98 3 13.96 3 16 C2.01 16 1.02 16 0 16 C0 10.72 0 5.44 0 0 Z " fill="#46726E" transform="translate(75,247)"/>
<path d="M0 0 C6.8359375 -0.1953125 6.8359375 -0.1953125 9 0 C11 2 11 2 11.25 4.5 C11 7 11 7 9 9 C5.875 9.125 5.875 9.125 3 9 C3 10.98 3 12.96 3 15 C2.01 15 1.02 15 0 15 C0 10.05 0 5.1 0 0 Z " fill="#3B6A65" transform="translate(158,218)"/>
<path d="M0 0 C1.32 0 2.64 0 4 0 C4.83986084 1.93467942 5.67168027 3.87285129 6.5 5.8125 C6.9640625 6.89144531 7.428125 7.97039062 7.90625 9.08203125 C9 12 9 12 9 15 C8.01 14.67 7.02 14.34 6 14 C5.67 13.34 5.34 12.68 5 12 C2.67843403 11.59270772 0.3431213 11.25561323 -2 11 C-2.33 12.32 -2.66 13.64 -3 15 C-3.66 15 -4.32 15 -5 15 C-4.43174347 9.45949887 -2.37113483 4.96284034 0 0 Z " fill="#33615D" transform="translate(164,248)"/>
<path d="M0 0 C0.99 0 1.98 0 3 0 C3.83986084 1.93467942 4.67168027 3.87285129 5.5 5.8125 C5.9640625 6.89144531 6.428125 7.97039062 6.90625 9.08203125 C8 12 8 12 8 15 C7.01 14.67 6.02 14.34 5 14 C5 13.01 5 12.02 5 11 C2.69 11.33 0.38 11.66 -2 12 C-2.33 12.99 -2.66 13.98 -3 15 C-3.99 15 -4.98 15 -6 15 C-4.36041242 9.76727367 -2.61047965 4.84803364 0 0 Z " fill="#34635E" transform="translate(155,188)"/>
<path d="M0 0 C3.3 0 6.6 0 10 0 C10 0.66 10 1.32 10 2 C7.69 2 5.38 2 3 2 C3 3.32 3 4.64 3 6 C4.65 6 6.3 6 8 6 C8.33 6.99 8.66 7.98 9 9 C7.02 9 5.04 9 3 9 C3 10.32 3 11.64 3 13 C5.31 13 7.62 13 10 13 C10 13.99 10 14.98 10 16 C6.7 16 3.4 16 0 16 C0 10.72 0 5.44 0 0 Z " fill="#4F7A75" transform="translate(179,188)"/>
<path d="M0 0 C3.625 0.375 3.625 0.375 7 1 C8.25 7.625 8.25 7.625 6 11 C2.375 11.1875 2.375 11.1875 -1 11 C-2.50662097 7.98675805 -2.17770373 5.31713623 -2 2 C-1.34 1.34 -0.68 0.68 0 0 Z " fill="#F8FDFD" transform="translate(91,190)"/>
<path d="M0 0 C3.0625 0.1875 3.0625 0.1875 5.0625 2.1875 C5.3125 5.6875 5.3125 5.6875 5.0625 9.1875 C3.0625 11.1875 3.0625 11.1875 0.625 11.5 C-1.9375 11.1875 -1.9375 11.1875 -3.8125 10.125 C-5.60060335 7.04548867 -4.68342606 4.54416727 -3.9375 1.1875 C-2.9375 0.1875 -2.9375 0.1875 0 0 Z " fill="#FBFCFD" transform="translate(147.9375,219.8125)"/>
<path d="M0 0 C2.4375 1.5625 2.4375 1.5625 4 4 C4.56288002 7.94016013 4.60396028 10.05782196 2.4375 13.4375 C-0.94217804 15.60396028 -3.05983987 15.56288002 -7 15 C-9.4375 13.4375 -9.4375 13.4375 -11 11 C-11.56288002 7.05983987 -11.60396028 4.94217804 -9.4375 1.5625 C-6.05782196 -0.60396028 -3.94016013 -0.56288002 0 0 Z M-6 2 C-8.38785276 3.94234089 -8.38785276 3.94234089 -8.1875 7.5 C-8.24131237 10.84964703 -8.24131237 10.84964703 -7 13 C-3.58357241 13.25015873 -3.58357241 13.25015873 0 13 C2.56687367 9.1496895 1.83288724 7.41430237 1 3 C-2.40320934 2.32326553 -2.40320934 2.32326553 -6 2 Z " fill="#2E5B58" transform="translate(97,188)"/>
<path d="M0 0 C2.66858306 0.53661725 3.56706088 1.24160875 5.15625 3.43359375 C5.91537409 10.26571054 5.91537409 10.26571054 3.53125 13.93359375 C0.39311002 15.91557689 -1.19248465 16.10423433 -4.84375 15.43359375 C-8.21371335 12.94275127 -9.66185427 11.5477051 -10.34375 7.37109375 C-9.18279069 0.55045779 -6.37628436 -0.01062714 0 0 Z M-6.84375 3.43359375 C-7.28202201 5.33817304 -7.28202201 5.33817304 -7.15625 7.43359375 C-7.15238281 8.13484375 -7.14851562 8.83609375 -7.14453125 9.55859375 C-6.99287946 11.67525145 -6.99287946 11.67525145 -4.84375 13.43359375 C-1.27782381 13.26942343 -1.27782381 13.26942343 2.15625 12.43359375 C3.57066874 9.60475628 3.47525332 7.5598263 3.15625 4.43359375 C1.4453289 2.46260949 1.4453289 2.46260949 -0.84375 1.43359375 C-4.02865007 1.15624365 -4.02865007 1.15624365 -6.84375 3.43359375 Z " fill="#37605D" transform="translate(140.84375,247.56640625)"/>
<path d="M0 0 C4.88738031 2.44369016 6.02714538 4.54071807 9 9 C9.33 6.03 9.66 3.06 10 0 C10.66 0 11.32 0 12 0 C12 4.95 12 9.9 12 15 C8.51127585 13.83709195 7.90023136 12.86032391 5.8125 9.9375 C5.28269531 9.20402344 4.75289062 8.47054687 4.20703125 7.71484375 C3.80871094 7.14894531 3.41039062 6.58304688 3 6 C2.67 8.97 2.34 11.94 2 15 C1.34 15 0.68 15 0 15 C0 10.05 0 5.1 0 0 Z " fill="#32615C" transform="translate(204,218)"/>
<path d="M0 0 C2.09765625 0.34375 2.09765625 0.34375 4.16015625 1.90625 C5.47647828 5.32868728 5.61687093 7.70924727 5.09765625 11.34375 C2.51596174 14.30510546 0.9088449 15.21131104 -2.96484375 15.84375 C-5.90234375 15.34375 -5.90234375 15.34375 -8.27734375 13.84375 C-10.70898874 10.10275771 -10.39409217 7.76948582 -9.90234375 3.34375 C-7.17762337 -0.41448501 -4.34576236 -0.16959073 0 0 Z M-6.08984375 2.46875 C-8.19080935 4.27695773 -8.19080935 4.27695773 -8.33984375 7.34375 C-8.11932025 10.28290224 -8.11932025 10.28290224 -6.71484375 12.21875 C-4.24727267 13.75034584 -2.75714544 13.77197025 0.09765625 13.34375 C2.11716687 12.40777685 2.11716687 12.40777685 3.09765625 10.34375 C3.0984816 6.76618314 3.0984816 6.76618314 2.09765625 3.34375 C-1.25891142 1.10603822 -2.48308079 0.61384333 -6.08984375 2.46875 Z " fill="#325D59" transform="translate(110.90234375,247.65625)"/>
<path d="M0 0 C2.875 -0.125 2.875 -0.125 6 0 C8 2 8 2 8.25 5.5 C8 9 8 9 6 11 C2.875 11.125 2.875 11.125 0 11 C0 7.37 0 3.74 0 0 Z " fill="#F1FBFB" transform="translate(78,220)"/>
<path d="M0 0 C2.97 0 5.94 0 9 0 C9 0.66 9 1.32 9 2 C6.69 2 4.38 2 2 2 C2 3.32 2 4.64 2 6 C3.98 6 5.96 6 8 6 C8 6.99 8 7.98 8 9 C6.02 9 4.04 9 2 9 C2 10.32 2 11.64 2 13 C4.31 13 6.62 13 9 13 C9 13.66 9 14.32 9 15 C6.03 15 3.06 15 0 15 C0 10.05 0 5.1 0 0 Z " fill="#234F4A" transform="translate(119,218)"/>
<path d="M0 0 C0.99 0 1.98 0 3 0 C4.32 3.3 5.64 6.6 7 10 C8.32 6.7 9.64 3.4 11 0 C11.99 0 12.98 0 14 0 C12.33333333 5 10.66666667 10 9 15 C7.171875 14.87109375 7.171875 14.87109375 5 14 C3.515625 11.34765625 3.515625 11.34765625 2.25 8.0625 C1.82203125 6.98097656 1.3940625 5.89945313 0.953125 4.78515625 C0 2 0 2 0 0 Z " fill="#336361" transform="translate(102,218)"/>
<path d="M0 0 C1.670625 0.061875 1.670625 0.061875 3.375 0.125 C3.375 0.785 3.375 1.445 3.375 2.125 C1.395 2.125 -0.585 2.125 -2.625 2.125 C-1.90231765 5.4235139 -1.90231765 5.4235139 1.4375 6.8125 C2.406875 7.245625 3.37625 7.67875 4.375 8.125 C3.625 12.875 3.625 12.875 1.375 15.125 C-1.75 15.25 -1.75 15.25 -4.625 15.125 C-4.955 14.135 -5.285 13.145 -5.625 12.125 C-3.315 12.455 -1.005 12.785 1.375 13.125 C1.26193303 11.16605639 1.26193303 11.16605639 0.375 9.125 C-0.45 8.815625 -1.275 8.50625 -2.125 8.1875 C-2.95 7.836875 -3.775 7.48625 -4.625 7.125 C-5.5625 4.625 -5.5625 4.625 -5.625 2.125 C-3.625 0.125 -3.625 0.125 0 0 Z " fill="#396460" transform="translate(153.625,247.875)"/>
<path d="M0 0 C2.31 0 4.62 0 7 0 C6.67 1.98 6.34 3.96 6 6 C7.98 6.99 9.96 7.98 12 9 C12 10.32 12 11.64 12 13 C9.69 12.67 7.38 12.34 5 12 C4.67 12.66 4.34 13.32 4 14 C1.42337892 10.13506838 2 7.56985872 2 3 C1.34 2.01 0.68 1.02 0 0 Z " fill="#DFF5F3" transform="translate(143,248)"/>
<path d="M0 0 C0.33 1.98 0.66 3.96 1 6 C0.59910156 5.51144531 0.19820312 5.02289063 -0.21484375 4.51953125 C-2.47207925 2.59816449 -3.63792038 2.62486485 -6.5625 2.6875 C-7.34753906 2.69136719 -8.13257812 2.69523438 -8.94140625 2.69921875 C-11.22126834 2.82296977 -11.22126834 2.82296977 -13 5 C-13.24253813 7.21072977 -13.24253813 7.21072977 -13.125 9.625 C-13.10695313 10.44226563 -13.08890625 11.25953125 -13.0703125 12.1015625 C-13.04710938 12.72804688 -13.02390625 13.35453125 -13 14 C-13.66 14 -14.32 14 -15 14 C-15.33 14.66 -15.66 15.32 -16 16 C-17.32 14.02 -18.64 12.04 -20 10 C-19.01 9.34 -18.02 8.68 -17 8 C-16.71125 7.195625 -16.4225 6.39125 -16.125 5.5625 C-13.10449281 -1.31754415 -6.45377606 -0.33835331 0 0 Z " fill="#DDF3F3" transform="translate(115,246)"/>
<path d="M0 0 C3.3 0 6.6 0 10 0 C10 0.66 10 1.32 10 2 C7.69 2 5.38 2 3 2 C3 3.65 3 5.3 3 7 C4.98 7 6.96 7 9 7 C9 7.66 9 8.32 9 9 C7.02 9 5.04 9 3 9 C3 10.98 3 12.96 3 15 C2.01 15 1.02 15 0 15 C0 10.05 0 5.1 0 0 Z " fill="#3B6762" transform="translate(104,188)"/>
<path d="M0 0 C2.97 0 5.94 0 9 0 C9 0.66 9 1.32 9 2 C6.69 2 4.38 2 2 2 C2 3.32 2 4.64 2 6 C3.98 6 5.96 6 8 6 C8 6.66 8 7.32 8 8 C6.02 8 4.04 8 2 8 C2 9.65 2 11.3 2 13 C4.31 13 6.62 13 9 13 C9 13.66 9 14.32 9 15 C6.03 15 3.06 15 0 15 C0 10.05 0 5.1 0 0 Z " fill="#315E59" transform="translate(92,218)"/>
<path d="M0 0 C3.625 0.375 3.625 0.375 7 1 C6.34 1.66 5.68 2.32 5 3 C3.68 3 2.36 3 1 3 C1 3.66 1 4.32 1 5 C2.98 5.99 4.96 6.98 7 8 C7.125 10.375 7.125 10.375 7 13 C5 15 5 15 1.375 15.125 C0.26125 15.08375 -0.8525 15.0425 -2 15 C-2.33 14.01 -2.66 13.02 -3 12 C-0.69 12 1.62 12 4 12 C4 11.34 4 10.68 4 10 C2.02 9.01 0.04 8.02 -2 7 C-2.125 4.625 -2.125 4.625 -2 2 C-1.34 1.34 -0.68 0.68 0 0 Z " fill="#39635E" transform="translate(77,188)"/>
<path d="M0 0 C0.33 0 0.66 0 1 0 C1.12375 0.804375 1.2475 1.60875 1.375 2.4375 C1.58125 3.283125 1.7875 4.12875 2 5 C2.66 5.33 3.32 5.66 4 6 C2.68 8.97 1.36 11.94 0 15 C0.99 15 1.98 15 3 15 C2.67 15.66 2.34 16.32 2 17 C-0.97 16.67 -3.94 16.34 -7 16 C-6.53851563 15.45730469 -6.07703125 14.91460937 -5.6015625 14.35546875 C-3.78778407 11.68788731 -3.13424246 9.43707473 -2.375 6.3125 C-1.08787346 1.08787346 -1.08787346 1.08787346 0 0 Z " fill="#E6F5F5" transform="translate(149,188)"/>
<path d="M0 0 C3.96 0 7.92 0 12 0 C11.01 0.495 11.01 0.495 10 1 C10.515625 1.94875 11.03125 2.8975 11.5625 3.875 C12.036875 4.90625 12.51125 5.9375 13 7 C12.67 7.66 12.34 8.32 12 9 C11.01 8.67 10.02 8.34 9 8 C9 8.66 9 9.32 9 10 C6.69 10 4.38 10 2 10 C2 9.67 2 9.34 2 9 C3.98 9 5.96 9 8 9 C8 8.34 8 7.68 8 7 C6.02 7 4.04 7 2 7 C2 5.68 2 4.36 2 3 C4.31 3 6.62 3 9 3 C9 2.34 9 1.68 9 1 C6.03 1 3.06 1 0 1 C0 0.67 0 0.34 0 0 Z " fill="#C7E1E1" transform="translate(92,217)"/>
<path d="M0 0 C2.97 0 5.94 0 9 0 C9 0.33 9 0.66 9 1 C6.69 1 4.38 1 2 1 C2 2.65 2 4.3 2 6 C3.98 6 5.96 6 8 6 C8 6.66 8 7.32 8 8 C6.02 8 4.04 8 2 8 C2 9.65 2 11.3 2 13 C4.31 13 6.62 13 9 13 C9 13.66 9 14.32 9 15 C6.03 15 3.06 15 0 15 C0 10.05 0 5.1 0 0 Z " fill="#2A5853" transform="translate(192,218)"/>
<path d="M0 0 C1.65 0 3.3 0 5 0 C4.01 0.33 3.02 0.66 2 1 C2 2.98 2 4.96 2 7 C3.98 7 5.96 7 8 7 C8.12375 7.5775 8.2475 8.155 8.375 8.75 C9.00648824 11.02335767 9.88858191 12.9253529 11 15 C6.75177626 14.52797514 4.80010291 12.03344482 2 9 C2 10.98 2 12.96 2 15 C1.34 15 0.68 15 0 15 C0 10.05 0 5.1 0 0 Z " fill="#20504B" transform="translate(166,188)"/>
<path d="M0 0 C7 0 7 0 10 2 C9.67 3.32 9.34 4.64 9 6 C8.34 5.01 7.68 4.02 7 3 C4.43717258 2.27034634 4.43717258 2.27034634 2 2 C2 3.98 2 5.96 2 8 C2.99 8.33 3.98 8.66 5 9 C4.34 9 3.68 9 3 9 C3 11.31 3 13.62 3 16 C2.01 16 1.02 16 0 16 C0 10.72 0 5.44 0 0 Z " fill="#3D6A64" transform="translate(88,247)"/>
<path d="M0 0 C0.33 0.99 0.66 1.98 1 3 C1.66 3 2.32 3 3 3 C3.33 2.01 3.66 1.02 4 0 C8.29 0 12.58 0 17 0 C17 1.65 17 3.3 17 5 C14 5 14 5 10.6875 4.4375 C7.13265841 4.01573913 4.47227868 4.23779248 1 5 C0.67 3.35 0.34 1.7 0 0 Z " fill="#A4A4A4" transform="translate(105,117)"/>
<path d="M0 0 C0.99 0 1.98 0 3 0 C3 4.62 3 9.24 3 14 C4.98 14 6.96 14 9 14 C9 14.66 9 15.32 9 16 C6.03 16 3.06 16 0 16 C0 10.72 0 5.44 0 0 Z " fill="#476C6A" transform="translate(175,247)"/>
<path d="M0 0 C0.99 0 1.98 0 3 0 C3 4.95 3 9.9 3 15 C2.34 15 1.68 15 1 15 C0.67 11.7 0.34 8.4 0 5 C-1.32 7.64 -2.64 10.28 -4 13 C-4.99 12.67 -5.98 12.34 -7 12 C-7 11.34 -7 10.68 -7 10 C-6.5875 9.608125 -6.175 9.21625 -5.75 8.8125 C-3.21580866 6.18780183 -1.74974638 3.19781235 0 0 Z " fill="#2F5D58" transform="translate(185,218)"/>
<path d="M0 0 C5.28 0 10.56 0 16 0 C16 0.99 16 1.98 16 3 C15 4 15 4 12.12890625 4.0625 C9.75390545 4.02087896 7.37890545 3.97921239 5.00390625 3.9375 C2.07529546 3.78380594 2.07529546 3.78380594 0 5 C0 3.35 0 1.7 0 0 Z " fill="#858585" transform="translate(76,117)"/>
<path d="M0 0 C0.33 0 0.66 0 1 0 C1.33 3.3 1.66 6.6 2 10 C2.99 10 3.98 10 5 10 C5.33 7.36 5.66 4.72 6 2 C7.32 1.67 8.64 1.34 10 1 C9.67 1.66 9.34 2.32 9 3 C8.92966231 4.87379605 8.9156978 6.75001102 8.9375 8.625 C8.95103516 10.12933594 8.95103516 10.12933594 8.96484375 11.6640625 C8.97644531 12.43492187 8.98804688 13.20578125 9 14 C8.01 14.33 7.02 14.66 6 15 C6 14.34 6 13.68 6 13 C4.02 13 2.04 13 0 13 C0 8.71 0 4.42 0 0 Z " fill="#DBF4F2" transform="translate(133,218)"/>
<path d="M0 0 C2.31 0 4.62 0 7 0 C7 0.33 7 0.66 7 1 C5.35 1 3.7 1 2 1 C2 2.98 2 4.96 2 7 C4.31 7 6.62 7 9 7 C8.67 7.66 8.34 8.32 8 9 C6.35 9 4.7 9 3 9 C3 10.98 3 12.96 3 15 C2.01 15 1.02 15 0 15 C0 10.05 0 5.1 0 0 Z " fill="#2F5F59" transform="translate(119,248)"/>
<path d="M0 0 C-0.33 1.65 -0.66 3.3 -1 5 C-3.64 5 -6.28 5 -9 5 C-9 3.02 -9 1.04 -9 -1 C-5.22102349 -2.0497157 -3.35080929 -2.10976881 0 0 Z " fill="#507F7B" transform="translate(130,250)"/>
<path d="M0 0 C2.31 0 4.62 0 7 0 C7 0.66 7 1.32 7 2 C5.35 2 3.7 2 2 2 C2.26656572 4.93443402 2.26656572 4.93443402 3 8 C3.99 8.66 4.98 9.32 6 10 C5.01 10 4.02 10 3 10 C3 11.98 3 13.96 3 16 C2.01 16 1.02 16 0 16 C0 10.72 0 5.44 0 0 Z " fill="#416E67" transform="translate(75,247)"/>
<path d="M0 0 C3.63 0 7.26 0 11 0 C9.68 0.33 8.36 0.66 7 1 C7 5.62 7 10.24 7 15 C6.01 15 5.02 15 4 15 C4 10.38 4 5.76 4 1 C2.68 0.67 1.36 0.34 0 0 Z " fill="#396560" transform="translate(219,218)"/>
<path d="M0 0 C2.475 0.99 2.475 0.99 5 2 C4.01 2.66 3.02 3.32 2 4 C2.33 4.66 2.66 5.32 3 6 C2.67 6.66 2.34 7.32 2 8 C1.84504237 10.24974161 1.74989072 12.50371536 1.68359375 14.7578125 C1.66281265 15.42086395 1.64203156 16.08391541 1.62062073 16.76705933 C1.55520769 18.88626694 1.49627895 21.005599 1.4375 23.125 C1.39430691 24.56121081 1.35069236 25.99740902 1.30664062 27.43359375 C1.19953501 30.95559594 1.09824425 34.47773825 1 38 C0.67 38 0.34 38 0 38 C0 25.46 0 12.92 0 0 Z " fill="#97B3B6" transform="translate(313,269)"/>
<path d="M0 0 C0.33 0.99 0.66 1.98 1 3 C0.01 3.495 0.01 3.495 -1 4 C-1.33 3.34 -1.66 2.68 -2 2 C-2.99 1.67 -3.98 1.34 -5 1 C-5 5.95 -5 10.9 -5 16 C-5.66 14.68 -6.32 13.36 -7 12 C-6.67 11.34 -6.34 10.68 -6 10 C-6.99 10.495 -6.99 10.495 -8 11 C-10.3329866 11.04022391 -12.66706666 11.04320247 -15 11 C-15 10.67 -15 10.34 -15 10 C-12.69 9.34 -10.38 8.68 -8 8 C-7.84850702 4.37114676 -7.84850702 4.37114676 -9 1 C-5.8035914 -0.06546953 -3.34252724 -0.07427838 0 0 Z " fill="#D9F1F1" transform="translate(176,217)"/>
<path d="M0 0 C0.38218767 1.65614657 0.71395102 3.32457024 1 5 C0 6 0 6 -3.5625 6.0625 C-4.696875 6.041875 -5.83125 6.02125 -7 6 C-7 4.02 -7 2.04 -7 0 C-3.86650268 -1.04449911 -3.01031744 -0.93423645 0 0 Z " fill="#406C69" transform="translate(175,189)"/>
<path d="M0 0 C0.33 0 0.66 0 1 0 C1 3.3 1 6.6 1 10 C0.34 10 -0.32 10 -1 10 C-1 9.34 -1 8.68 -1 8 C-3.31 8 -5.62 8 -8 8 C-8 6.68 -8 5.36 -8 4 C-7.05125 3.896875 -6.1025 3.79375 -5.125 3.6875 C-1.70892499 3.31460705 -1.70892499 3.31460705 0 0 Z " fill="#ECFCFC" transform="translate(129,223)"/>
<path d="M0 0 C2.31 0 4.62 0 7 0 C7 0.33 7 0.66 7 1 C5.35 1 3.7 1 2 1 C2.18415432 3.94091587 2.18415432 3.94091587 3 7 C4.95163118 8.43637698 4.95163118 8.43637698 7 9 C5.68 9 4.36 9 3 9 C3 10.98 3 12.96 3 15 C2.01 15 1.02 15 0 15 C0 10.05 0 5.1 0 0 Z " fill="#396762" transform="translate(158,218)"/>
<path d="M0 0 C1.99954746 -0.04254356 4.00041636 -0.04080783 6 0 C7 1 7 1 7.0625 4.0625 C7.041875 5.031875 7.02125 6.00125 7 7 C4.69 6.67 2.38 6.34 0 6 C0 4.02 0 2.04 0 0 Z " fill="#F8FCFE" transform="translate(136,252)"/>
<path d="M0 0 C0 4.95 0 9.9 0 15 C-0.33 14.01 -0.66 13.02 -1 12 C-2.65 12.66 -4.3 13.32 -6 14 C-5.67 13.46375 -5.34 12.9275 -5 12.375 C-3.75908477 9.42782633 -3.79321834 7.17065216 -4 4 C-4.33 3.34 -4.66 2.68 -5 2 C-1.125 0 -1.125 0 0 0 Z " fill="#C6E2E2" transform="translate(92,218)"/>
<path d="M0 0 C0.66 0 1.32 0 2 0 C2.33 1.98 2.66 3.96 3 6 C2.21625 6.061875 1.4325 6.12375 0.625 6.1875 C-0.24125 6.455625 -1.1075 6.72375 -2 7 C-3.37466625 9.47636012 -3.37466625 9.47636012 -4 12 C-4.66 12 -5.32 12 -6 12 C-5.44894091 8.0507432 -4.61064629 4.65079826 -3 1 C-2.34 1.33 -1.68 1.66 -1 2 C-0.67 1.34 -0.34 0.68 0 0 Z " fill="#396964" transform="translate(165,251)"/>
<path d="M0 0 C0.66 0 1.32 0 2 0 C2 4.29 2 8.58 2 13 C3.98 13 5.96 13 8 13 C8 13.66 8 14.32 8 15 C5.36 15 2.72 15 0 15 C0 10.05 0 5.1 0 0 Z " fill="#27544E" transform="translate(131,218)"/>
<path d="M0 0 C0.33 0.66 0.66 1.32 1 2 C1.66 2 2.32 2 3 2 C3 2.66 3 3.32 3 4 C4.65 4 6.3 4 8 4 C8.33 4.99 8.66 5.98 9 7 C7.68 7 6.36 7 5 7 C4.67 7.99 4.34 8.98 4 10 C2.68 10 1.36 10 0 10 C0 6.7 0 3.4 0 0 Z " fill="#C8D5D3" transform="translate(0,75)"/>
<path d="M0 0 C6.30818278 -0.35706695 6.30818278 -0.35706695 8.9375 1 C10.64965688 4.22288354 10.56410304 7.43724398 10 11 C8.625 13 8.625 13 7 14 C6.34 14 5.68 14 5 14 C5 13.34 5 12.68 5 12 C5.66 12 6.32 12 7 12 C7 9.36 7 6.72 7 4 C4.69 3.01 2.38 2.02 0 1 C0 0.67 0 0.34 0 0 Z " fill="#2C5652" transform="translate(136,248)"/>
<path d="M0 0 C2.64 0 5.28 0 8 0 C8 0.33 8 0.66 8 1 C5.69 1 3.38 1 1 1 C1 5.95 1 10.9 1 16 C0.34 15.01 -0.32 14.02 -1 13 C-2.98 13.99 -2.98 13.99 -5 15 C-4.34 14.01 -3.68 13.02 -3 12 C-2.60986284 10.0103005 -2.26797351 8.00980131 -2 6 C-1.67 6 -1.34 6 -1 6 C-0.67 4.02 -0.34 2.04 0 0 Z " fill="#C6E4E3" transform="translate(118,247)"/>
<path d="M0 0 C0.99 1.32 1.98 2.64 3 4 C2.34 4 1.68 4 1 4 C0.34 7.3 -0.32 10.6 -1 14 C-2.32 14 -3.64 14 -5 14 C-4.25 8.25 -4.25 8.25 -2 6 C-1.28591666 4.01643517 -0.61382258 2.01684563 0 0 Z " fill="#427270" transform="translate(136,189)"/>
<path d="M0 0 C0.99 0 1.98 0 3 0 C3.66 0.66 4.32 1.32 5 2 C5.99 1.34 6.98 0.68 8 0 C8 3.3 8 6.6 8 10 C4.71211176 6.88983545 2.16264012 3.98381075 0 0 Z " fill="#EAF8F9" transform="translate(206,218)"/>
<path d="M0 0 C2.64 0 5.28 0 8 0 C8 0.33 8 0.66 8 1 C5.69 1 3.38 1 1 1 C1 2.32 1 3.64 1 5 C2.98 5 4.96 5 7 5 C7 5.99 7 6.98 7 8 C5.02 8 3.04 8 1 8 C0.67 9.32 0.34 10.64 0 12 C0 8.04 0 4.08 0 0 Z " fill="#54807C" transform="translate(120,219)"/>
<path d="M0 0 C0.9375 3.3125 0.9375 3.3125 1 7 C-1.125 9.5 -1.125 9.5 -4 11 C-6.8125 10.75 -6.8125 10.75 -9 10 C-9 9.67 -9 9.34 -9 9 C-7.02 8.34 -5.04 7.68 -3 7 C-2.74969023 4.58380177 -2.74969023 4.58380177 -3 2 C-3.99 1.34 -4.98 0.68 -6 0 C-2.25 -1.125 -2.25 -1.125 0 0 Z " fill="#D1EEED" transform="translate(86,194)"/>
<path d="M0 0 C0.99 0 1.98 0 3 0 C3 4.62 3 9.24 3 14 C2.01 14.33 1.02 14.66 0 15 C0 10.05 0 5.1 0 0 Z " fill="#E2FAFB" transform="translate(188,218)"/>
<path d="M0 0 C2.31 0 4.62 0 7 0 C6.7834375 0.93972656 6.7834375 0.93972656 6.5625 1.8984375 C6.376875 2.71570313 6.19125 3.53296875 6 4.375 C5.814375 5.18710938 5.62875 5.99921875 5.4375 6.8359375 C4.93394761 8.95874951 4.93394761 8.95874951 5 11 C5.66 11.33 6.32 11.66 7 12 C6.34 12 5.68 12 5 12 C4.67 12.66 4.34 13.32 4 14 C1.42337892 10.13506838 2 7.56985872 2 3 C1.34 2.01 0.68 1.02 0 0 Z " fill="#CDE7E6" transform="translate(143,248)"/>
<path d="M0 0 C0.33 0 0.66 0 1 0 C1 4.95 1 9.9 1 15 C1.66 15.33 2.32 15.66 3 16 C0.69 16 -1.62 16 -4 16 C-3.34 15.67 -2.68 15.34 -2 15 C-2.33 13.35 -2.66 11.7 -3 10 C-2.34 9.67 -1.68 9.34 -1 9 C-0.53348793 6.87423218 -0.53348793 6.87423218 -0.375 4.4375 C-0.30023438 3.61121094 -0.22546875 2.78492188 -0.1484375 1.93359375 C-0.09945312 1.29550781 -0.05046875 0.65742188 0 0 Z " fill="#BBD8D7" transform="translate(165,188)"/>
<path d="M0 0 C0.99 0.33 1.98 0.66 3 1 C2.41091199 3.15002171 1.8032758 5.2949692 1.1875 7.4375 C0.85105469 8.63246094 0.51460937 9.82742187 0.16796875 11.05859375 C-0.21746094 12.02925781 -0.60289062 12.99992188 -1 14 C-1.99 14.33 -2.98 14.66 -4 15 C-3.79503906 14.25234375 -3.59007812 13.5046875 -3.37890625 12.734375 C-3.10949219 11.74953125 -2.84007812 10.7646875 -2.5625 9.75 C-2.29566406 8.77546875 -2.02882812 7.8009375 -1.75390625 6.796875 C-1.14455416 4.53627347 -0.55761745 2.27377991 0 0 Z " fill="#32615C" transform="translate(146,188)"/>
<path d="M0 0 C1.32 0.66 2.64 1.32 4 2 C4.48461538 8.3 4.48461538 8.3 2.3125 11.4375 C-0.38410809 13.25953249 -1.81126451 13.35430394 -5 13 C-3.42304761 11.94869841 -1.84425268 10.89987672 -0.25 9.875 C1.86491119 6.70263321 0.65680237 3.64226766 0 0 Z " fill="#295652" transform="translate(97,190)"/>
<path d="M0 0 C4.62 0 9.24 0 14 0 C14 0.33 14 0.66 14 1 C11.03 1 8.06 1 5 1 C5 5.95 5 10.9 5 16 C4.67 16 4.34 16 4 16 C4 11.71 4 7.42 4 3 C3.34 3 2.68 3 2 3 C2 2.34 2 1.68 2 1 C1.34 0.67 0.68 0.34 0 0 Z " fill="#A6C2C2" transform="translate(114,217)"/>
<path d="M0 0 C1.32 0.33 2.64 0.66 4 1 C3.01 1.495 3.01 1.495 2 2 C1.09274566 4.11327425 1.09274566 4.11327425 0.375 6.5625 C0.11460937 7.38878906 -0.14578125 8.21507812 -0.4140625 9.06640625 C-0.60742188 9.70449219 -0.80078125 10.34257812 -1 11 C-3 10 -3 10 -3.6328125 8.15234375 C-3.79523438 7.42144531 -3.95765625 6.69054687 -4.125 5.9375 C-4.29257813 5.20402344 -4.46015625 4.47054687 -4.6328125 3.71484375 C-4.75398437 3.14894531 -4.87515625 2.58304688 -5 2 C-4.34 2 -3.68 2 -3 2 C-3 2.66 -3 3.32 -3 4 C-0.94729537 2.15811388 -0.94729537 2.15811388 0 0 Z " fill="#DFF8F7" transform="translate(135,187)"/>
<path d="M0 0 C3.77746904 0.65500057 6.48506931 2.38093236 9.6875 4.4375 C10.66074219 5.05496094 11.63398438 5.67242187 12.63671875 6.30859375 C15 8 15 8 16 10 C12.14340838 8.55377814 8.52237006 6.78682503 4.8671875 4.90234375 C2.85335678 3.87997124 2.85335678 3.87997124 0 3 C0 2.01 0 1.02 0 0 Z " fill="#9FA5A4" transform="translate(320,272)"/>
<path d="M0 0 C1.134375 0.020625 2.26875 0.04125 3.4375 0.0625 C3.4375 0.7225 3.4375 1.3825 3.4375 2.0625 C1.4575 2.0625 -0.5225 2.0625 -2.5625 2.0625 C-2.2325 4.0425 -1.9025 6.0225 -1.5625 8.0625 C-2.8825 7.4025 -4.2025 6.7425 -5.5625 6.0625 C-4.48849278 0.07874549 -4.48849278 0.07874549 0 0 Z " fill="#436E6A" transform="translate(153.5625,247.9375)"/>
<path d="M0 0 C3.3 0 6.6 0 10 0 C9.67 1.32 9.34 2.64 9 4 C5.7 4 2.4 4 -1 4 C-0.67 2.68 -0.34 1.36 0 0 Z " fill="#989898" transform="translate(94,117)"/>
<path d="M0 0 C0.66 0 1.32 0 2 0 C2.46927699 4.03578215 2.29858931 5.58724419 -0.125 8.9375 C-3 11 -3 11 -6.3125 10.8125 C-7.199375 10.544375 -8.08625 10.27625 -9 10 C-9 9.67 -9 9.34 -9 9 C-7.329375 8.7215625 -7.329375 8.7215625 -5.625 8.4375 C-4.42875 7.963125 -3.2325 7.48875 -2 7 C-0.45913678 3.48599332 -0.45913678 3.48599332 0 0 Z " fill="#38625F" transform="translate(87,222)"/>
<path d="M0 0 C1.32 0 2.64 0 4 0 C3.719172 1.98073365 3.42503386 3.95958448 3.125 5.9375 C2.88136719 7.59072266 2.88136719 7.59072266 2.6328125 9.27734375 C2.42398438 10.17582031 2.21515625 11.07429687 2 12 C1.01 12.495 1.01 12.495 0 13 C0 8.71 0 4.42 0 0 Z " fill="#EBFEFE" transform="translate(226,220)"/>
<path d="M0 0 C0.99 0.33 1.98 0.66 3 1 C1.515 2.485 1.515 2.485 0 4 C-0.66 3.67 -1.32 3.34 -2 3 C-2 3.66 -2 4.32 -2 5 C-1.34 5 -0.68 5 0 5 C0 5.66 0 6.32 0 7 C-1.98 6.34 -3.96 5.68 -6 5 C-6 4.01 -6 3.02 -6 2 C-4.02 2 -2.04 2 0 2 C0 1.34 0 0.68 0 0 Z " fill="#DDF0F0" transform="translate(157,248)"/>
<path d="M0 0 C0.80308594 -0.02578125 1.60617188 -0.0515625 2.43359375 -0.078125 C3.48740234 0.08429688 3.48740234 0.08429688 4.5625 0.25 C5.2225 1.24 5.8825 2.23 6.5625 3.25 C5.9025 3.91 5.2425 4.57 4.5625 5.25 C4.170625 4.734375 3.77875 4.21875 3.375 3.6875 C1.62768549 1.96724173 1.62768549 1.96724173 -0.875 2.4375 C-3.22773229 3.18348829 -5.28352265 4.05334592 -7.4375 5.25 C-5.33346454 0.90166006 -4.90407852 0.09415831 0 0 Z " fill="#37625D" transform="translate(108.4375,247.75)"/>
<path d="M0 0 C1.65 0 3.3 0 5 0 C5.5625 1.9375 5.5625 1.9375 6 4 C5 5 5 5 2.4375 5.0625 C1.2309375 5.0315625 1.2309375 5.0315625 0 5 C0 3.35 0 1.7 0 0 Z " fill="#D9F4F3" transform="translate(161,220)"/>
<path d="M0 0 C1.98 0 3.96 0 6 0 C6.12375 0.5775 6.2475 1.155 6.375 1.75 C7.00648824 4.02335767 7.88858191 5.9253529 9 8 C6.46089803 7.61479436 5.27248877 7.29902057 3.515625 5.37109375 C3.09796875 4.73300781 2.6803125 4.09492188 2.25 3.4375 C1.82203125 2.79683594 1.3940625 2.15617188 0.953125 1.49609375 C0.48132813 0.75552734 0.48132813 0.75552734 0 0 Z " fill="#32635D" transform="translate(168,195)"/>
<path d="M0 0 C2.31 0.33 4.62 0.66 7 1 C7 1.99 7 2.98 7 4 C4.69 4 2.38 4 0 4 C0 2.68 0 1.36 0 0 Z " fill="#E6F9FA" transform="translate(78,190)"/>
<path d="M0 0 C2 2 2 2 2.3125 4.4375 C2 7 2 7 0.8125 8.8125 C-1.55982525 10.36678206 -3.22041345 10.22537188 -6 10 C-6.33 9.34 -6.66 8.68 -7 8 C-3.535 7.505 -3.535 7.505 0 7 C0 4.69 0 2.38 0 0 Z " fill="#CAE9E7" transform="translate(112,251)"/>
<path d="M0 0 C1.65 0 3.3 0 5 0 C5.625 3.375 5.625 3.375 6 7 C5.34 7.66 4.68 8.32 4 9 C2.75453595 6.50907189 3.2232422 5.58919267 4 3 C2.68 3 1.36 3 0 3 C0 2.01 0 1.02 0 0 Z " fill="#F6FEFD" transform="translate(196,221)"/>
<path d="M0 0 C0.33 0 0.66 0 1 0 C1.185625 1.2065625 1.185625 1.2065625 1.375 2.4375 C1.58125 3.283125 1.7875 4.12875 2 5 C2.66 5.33 3.32 5.66 4 6 C3.34 7.65 2.68 9.3 2 11 C1.34 10.01 0.68 9.02 0 8 C-0.66 8 -1.32 8 -2 8 C-1.125 1.125 -1.125 1.125 0 0 Z " fill="#D7F0EF" transform="translate(149,188)"/>
<path d="M0 0 C1.65 0 3.3 0 5 0 C5 1.65 5 3.3 5 5 C1.88772805 5 -0.94152152 4.54372951 -4 4 C-2.68 3.34 -1.36 2.68 0 2 C0 1.34 0 0.68 0 0 Z " fill="#9A9A9A" transform="translate(117,117)"/>
<path d="M0 0 C1.4540625 0.0309375 1.4540625 0.0309375 2.9375 0.0625 C-0.0625 2.0625 -0.0625 2.0625 -2.0625 2.0625 C-2.0625 4.7025 -2.0625 7.3425 -2.0625 10.0625 C-3.0525 9.4025 -4.0425 8.7425 -5.0625 8.0625 C-4.046875 0.08258929 -4.046875 0.08258929 0 0 Z " fill="#D4EFEF" transform="translate(148.0625,219.9375)"/>
<path d="M0 0 C0.66 0 1.32 0 2 0 C2.33 2.31 2.66 4.62 3 7 C1.35 7.66 -0.3 8.32 -2 9 C-1.34 6.03 -0.68 3.06 0 0 Z " fill="#DFF7F7" transform="translate(137,193)"/>
<path d="M0 0 C0.66 0 1.32 0 2 0 C3.25 6.625 3.25 6.625 1 10 C-2.625 10.1875 -2.625 10.1875 -6 10 C-6 9.67 -6 9.34 -6 9 C-4.02 9 -2.04 9 0 9 C0 6.03 0 3.06 0 0 Z " fill="#CBEAE8" transform="translate(96,191)"/>
<path d="M0 0 C0.66 0 1.32 0 2 0 C0.55540356 3.73187415 0.55540356 3.73187415 -1.8125 4.875 C-4.62762177 5.0358641 -6.476506 4.19164995 -9 3 C-9 2.67 -9 2.34 -9 2 C-6.03 2 -3.06 2 0 2 C0 1.34 0 0.68 0 0 Z " fill="#EAFAFA" transform="translate(184,261)"/>
<path d="M0 0 C0.33 0 0.66 0 1 0 C1.33 2.31 1.66 4.62 2 7 C1.34 7 0.68 7 0 7 C-0.33 7.66 -0.66 8.32 -1 9 C-2.32 7.02 -3.64 5.04 -5 3 C-3.33333333 3 -1.66666667 3 0 3 C0 2.01 0 1.02 0 0 Z " fill="#D2EBEA" transform="translate(100,253)"/>
<path d="M0 0 C1.98 0 3.96 0 6 0 C6.33 0.66 6.66 1.32 7 2 C6.67 2.66 6.34 3.32 6 4 C4.02 4 2.04 4 0 4 C0 2.68 0 1.36 0 0 Z " fill="#ECFCFC" transform="translate(94,220)"/>
<path d="M0 0 C1.98 0 3.96 0 6 0 C4.02 0.99 4.02 0.99 2 2 C1.66602213 4.87413125 1.66602213 4.87413125 2 8 C3.88077873 9.91256712 3.88077873 9.91256712 6 11 C4.02 11 2.04 11 0 11 C0 7.37 0 3.74 0 0 Z " fill="#E3F9FA" transform="translate(78,220)"/>
<path d="M0 0 C1.65 0 3.3 0 5 0 C4.67 1.65 4.34 3.3 4 5 C2.68 5 1.36 5 0 5 C0 3.35 0 1.7 0 0 Z " fill="#E5F9F9" transform="translate(122,250)"/>
<path d="M0 0 C1.65 0 3.3 0 5 0 C4.67 1.65 4.34 3.3 4 5 C2.68 5 1.36 5 0 5 C0 3.35 0 1.7 0 0 Z " fill="#E8FCFD" transform="translate(78,250)"/>
<path d="M0 0 C0.33 0 0.66 0 1 0 C1 3.63 1 7.26 1 11 C0.34 11 -0.32 11 -1 11 C-1 9.35 -1 7.7 -1 6 C-1.66 5.67 -2.32 5.34 -3 5 C-2.03114628 3.31503702 -1.03013277 1.64821244 0 0 Z " fill="#BBE2E0" transform="translate(185,222)"/>
<path d="M0 0 C0.99 0 1.98 0 3 0 C3.99 2.97 4.98 5.94 6 9 C5.01 9 4.02 9 3 9 C2.01 6.03 1.02 3.06 0 0 Z " fill="#3F6763" transform="translate(102,218)"/>
<path d="M0 0 C1.32 1.32 2.64 2.64 4 4 C4.66 3.01 5.32 2.02 6 1 C6 2.98 6 4.96 6 7 C4.68 7.33 3.36 7.66 2 8 C0.74335022 5.09399739 0 3.20395416 0 0 Z " fill="#E3F7F6" transform="translate(159,190)"/>
<path d="M0 0 C1.65 0 3.3 0 5 0 C4.67 1.65 4.34 3.3 4 5 C2.68 5 1.36 5 0 5 C0 3.35 0 1.7 0 0 Z " fill="#D8F8F8" transform="translate(168,190)"/>
<path d="M0 0 C0.33 0 0.66 0 1 0 C1.36923077 6.52307692 1.36923077 6.52307692 -0.5 8.9375 C-0.995 9.288125 -1.49 9.63875 -2 10 C-2.99 9.67 -3.98 9.34 -5 9 C-4.54625 8.62875 -4.0925 8.2575 -3.625 7.875 C-1.52970606 5.45735315 -0.87986715 3.04569398 0 0 Z " fill="#2B5B56" transform="translate(155,222)"/>
<path d="M0 0 C2.475 0.99 2.475 0.99 5 2 C4.67 2.99 4.34 3.98 4 5 C2.35 5 0.7 5 -1 5 C-1 2 -1 2 0 0 Z " fill="#DFF7F7" transform="translate(77,196)"/>
<path d="M0 0 C2.64 0 5.28 0 8 0 C8 0.99 8 1.98 8 3 C5.69 3 3.38 3 1 3 C0.67 3.66 0.34 4.32 0 5 C0 3.35 0 1.7 0 0 Z " fill="#B7B7B7" transform="translate(76,117)"/>
<path d="M0 0 C1.32 0.33 2.64 0.66 4 1 C4.125 4.375 4.125 4.375 4 8 C2 10 2 10 -0.625 10.125 C-1.40875 10.08375 -2.1925 10.0425 -3 10 C0 8 0 8 2 7 C1.34414811 3.39007621 1.34414811 3.39007621 0 0 Z " fill="#E0FAFA" transform="translate(149,221)"/>
<path d="M0 0 C1.74627478 2.61941217 2.38722388 4.03824877 3 7 C1.35 7 -0.3 7 -2 7 C-1.125 1.125 -1.125 1.125 0 0 Z " fill="#B7DFDD" transform="translate(156,191)"/>
<path d="M0 0 C2.475 0.99 2.475 0.99 5 2 C4.01 2.66 3.02 3.32 2 4 C2.33 4.66 2.66 5.32 3 6 C2.01 7.32 1.02 8.64 0 10 C0 6.7 0 3.4 0 0 Z " fill="#9DADB0" transform="translate(313,269)"/>
<path d="M0 0 C0.33 0 0.66 0 1 0 C3 6.625 3 6.625 3 10 C1 8.875 1 8.875 -1 7 C-1.3125 3.875 -1.3125 3.875 -1 1 C-0.67 0.67 -0.34 0.34 0 0 Z " fill="#265C54" transform="translate(102,252)"/>
<path d="M0 0 C0 2.64 0 5.28 0 8 C-0.99 8.33 -1.98 8.66 -3 9 C-2.979375 8.05125 -2.95875 7.1025 -2.9375 6.125 C-2.77448174 3.09333717 -2.77448174 3.09333717 -4 1 C-2 0 -2 0 0 0 Z " fill="#D9F6F6" transform="translate(88,247)"/>
<path d="M0 0 C4.455 1.98 4.455 1.98 9 4 C9 4.33 9 4.66 9 5 C2.47692308 5.36923077 2.47692308 5.36923077 0.0625 3.5 C-0.4634375 2.7575 -0.4634375 2.7575 -1 2 C-0.67 1.34 -0.34 0.68 0 0 Z " fill="#466E6B" transform="translate(143,228)"/>
<path d="M0 0 C1.33332095 2.6666419 0.67102033 4.16680303 0 7 C-0.33 7 -0.66 7 -1 7 C-1.66 5.02 -2.32 3.04 -3 1 C-5.97 0.505 -5.97 0.505 -9 0 C-9 -0.33 -9 -0.66 -9 -1 C-5.25616401 -2.03995444 -3.27217674 -2.22040564 0 0 Z " fill="#45726D" transform="translate(87,220)"/>
<path d="M0 0 C2.64 0.33 5.28 0.66 8 1 C8 1.66 8 2.32 8 3 C5.03 3 2.06 3 -1 3 C-0.67 2.01 -0.34 1.02 0 0 Z " fill="#D7ECEB" transform="translate(75,215)"/>
<path d="M0 0 C0.33 0 0.66 0 1 0 C1.33 2.64 1.66 5.28 2 8 C3.65 8 5.3 8 7 8 C6.01 8.66 5.02 9.32 4 10 C1.3125 9.125 1.3125 9.125 -1 8 C-0.67 5.36 -0.34 2.72 0 0 Z " fill="#547D7A" transform="translate(88,193)"/>
<path d="M0 0 C0.66 0 1.32 0 2 0 C2.33 1.98 2.66 3.96 3 6 C1.35 6 -0.3 6 -2 6 C-1.34 4.02 -0.68 2.04 0 0 Z " fill="#C3E9E8" transform="translate(165,251)"/>
<path d="M0 0 C1.65 0 3.3 0 5 0 C5 1.32 5 2.64 5 4 C3.35 4 1.7 4 0 4 C0 2.68 0 1.36 0 0 Z " fill="#E1F9F9" transform="translate(91,250)"/>
<path d="M0 0 C1.98 0 3.96 0 6 0 C5.67 1.32 5.34 2.64 5 4 C3.68 4 2.36 4 1 4 C0.67 2.68 0.34 1.36 0 0 Z " fill="#DAECED" transform="translate(194,226)"/>
<path d="M0 0 C0.78375 0.04125 1.5675 0.0825 2.375 0.125 C1.39933888 1.29459987 0.419375 2.46061177 -0.5625 3.625 C-1.10777344 4.2746875 -1.65304688 4.924375 -2.21484375 5.59375 C-2.68019531 6.0990625 -3.14554687 6.604375 -3.625 7.125 C-3.955 7.125 -4.285 7.125 -4.625 7.125 C-4.75 4.75 -4.75 4.75 -4.625 2.125 C-2.625 0.125 -2.625 0.125 0 0 Z " fill="#E2F9FA" transform="translate(93.625,189.875)"/>
<path d="M0 0 C1.32 1.32 2.64 2.64 4 4 C3.34 4.66 2.68 5.32 2 6 C1.34 7.32 0.68 8.64 0 10 C0 6.7 0 3.4 0 0 Z " fill="#E1FAFB" transform="translate(206,223)"/>
<path d="M0 0 C2.31 0 4.62 0 7 0 C6.67 0.99 6.34 1.98 6 3 C4.824375 2.9690625 4.824375 2.9690625 3.625 2.9375 C1.01885039 2.81315937 1.01885039 2.81315937 -1 4 C-0.67 2.68 -0.34 1.36 0 0 Z " fill="#C1DCDA" transform="translate(153,199)"/>
<path d="M0 0 C2.64 0 5.28 0 8 0 C8 0.33 8 0.66 8 1 C6.02 1.33 4.04 1.66 2 2 C1.67 2.99 1.34 3.98 1 5 C0.01 5 -0.98 5 -2 5 C-1.34 3.35 -0.68 1.7 0 0 Z " fill="#2F5752" transform="translate(151,198)"/>
<path d="M0 0 C0.33 0 0.66 0 1 0 C1 2.31 1 4.62 1 7 C-0.32 6.34 -1.64 5.68 -3 5 C-1.125 1.125 -1.125 1.125 0 0 Z " fill="#EDFEFE" transform="translate(177,194)"/>
<path d="M0 0 C2.97 0 5.94 0 9 0 C7.25 1.5625 7.25 1.5625 5 3 C2.8125 2.8125 2.8125 2.8125 1 2 C0.67 1.34 0.34 0.68 0 0 Z " fill="#DFF6F3" transform="translate(119,233)"/>
<path d="M0 0 C1.32 0 2.64 0 4 0 C4 0.99 4 1.98 4 3 C4.66 3.33 5.32 3.66 6 4 C4.02 4 2.04 4 0 4 C0 2.68 0 1.36 0 0 Z " fill="#DFFBFA" transform="translate(94,227)"/>
<path d="M0 0 C4 4.75 4 4.75 4 7 C2.68 7.33 1.36 7.66 0 8 C0 5.36 0 2.72 0 0 Z " fill="#D3F1F1" transform="translate(174,223)"/>
<path d="M0 0 C1.65 0 3.3 0 5 0 C5 1.98 5 3.96 5 6 C3.31237149 4.3545622 1.6459651 2.68711423 0 1 C0 0.67 0 0.34 0 0 Z " fill="#D6F5F4" transform="translate(209,222)"/>
<path d="M0 0 C1.65 0 3.3 0 5 0 C3.515 1.98 3.515 1.98 2 4 C3.32 4.33 4.64 4.66 6 5 C4.02 5 2.04 5 0 5 C0 3.35 0 1.7 0 0 Z " fill="#E7FEFD" transform="translate(107,190)"/>
<path d="M0 0 C2.31 0 4.62 0 7 0 C7 0.99 7 1.98 7 3 C4.69 3 2.38 3 0 3 C0 2.01 0 1.02 0 0 Z " fill="#3A6964" transform="translate(90,188)"/>
<path d="M0 0 C2.475 0.99 2.475 0.99 5 2 C4.67 2.99 4.34 3.98 4 5 C2.68 5 1.36 5 0 5 C0 3.35 0 1.7 0 0 Z " fill="#DDE0DE" transform="translate(0,80)"/>
<path d="M0 0 C1.5 1.3125 1.5 1.3125 3 3 C3 3.99 3 4.98 3 6 C1.68 6.33 0.36 6.66 -1 7 C-0.67 4.69 -0.34 2.38 0 0 Z " fill="#A3AAAD" transform="translate(314,303)"/>
<path d="M0 0 C2.31 0 4.62 0 7 0 C4.37801226 2.15377564 2.35595828 3.40072174 -1 4 C-0.67 2.68 -0.34 1.36 0 0 Z " fill="#D6EFEF" transform="translate(162,259)"/>
<path d="M0 0 C4.875 4.75 4.875 4.75 6 7 C4.125 6.6875 4.125 6.6875 2 6 C0 3 0 3 0 0 Z " fill="#335E59" transform="translate(94,256)"/>
<path d="M0 0 C0.99 0.33 1.98 0.66 3 1 C2.67 1.66 2.34 2.32 2 3 C1.34 3 0.68 3 0 3 C0 4.98 0 6.96 0 9 C-0.33 9 -0.66 9 -1 9 C-1.625 5.625 -1.625 5.625 -2 2 C-1.34 1.34 -0.68 0.68 0 0 Z " fill="#4E7570" transform="translate(134,248)"/>
</svg>
